<svg width="202" height="33" viewBox="0 0 202 33" fill="none" xmlns="http://www.w3.org/2000/svg">
<path d="M55.2528 1.4542V5.03134H46.703V25.9541H42.3559V5.03668H33.8061V1.4542H55.2528Z" fill="#383A4A"/>
<path d="M55.2528 1.4542V5.03134H46.703V25.9541H42.3559V5.03668H33.8061V1.4542H55.2528Z" fill="black" fill-opacity="0.2"/>
<path d="M55.2528 1.4542V5.03134H46.703V25.9541H42.3559V5.03668H33.8061V1.4542H55.2528Z" fill="black" fill-opacity="0.2"/>
<path d="M55.2528 1.4542V5.03134H46.703V25.9541H42.3559V5.03668H33.8061V1.4542H55.2528Z" fill="black" fill-opacity="0.2"/>
<path d="M55.2528 1.4542V5.03134H46.703V25.9541H42.3559V5.03668H33.8061V1.4542H55.2528Z" fill="black" fill-opacity="0.2"/>
<path d="M60.6266 1.4541V10.5386H60.7015C61.9901 8.88641 63.7707 8.06297 66.0324 8.06297C68.1766 8.06297 69.8395 8.67253 71.0212 9.8863C72.2029 11.1001 72.791 12.8913 72.791 15.2547V25.954H68.6257V15.5969C68.6257 12.6828 67.3692 11.2284 64.8614 11.2284C63.6209 11.2284 62.5997 11.6615 61.8137 12.5384C61.0223 13.41 60.6266 14.6505 60.6266 16.2546V25.9593H56.4613V1.4541H60.6266Z" fill="#383A4A"/>
<path d="M60.6266 1.4541V10.5386H60.7015C61.9901 8.88641 63.7707 8.06297 66.0324 8.06297C68.1766 8.06297 69.8395 8.67253 71.0212 9.8863C72.2029 11.1001 72.791 12.8913 72.791 15.2547V25.954H68.6257V15.5969C68.6257 12.6828 67.3692 11.2284 64.8614 11.2284C63.6209 11.2284 62.5997 11.6615 61.8137 12.5384C61.0223 13.41 60.6266 14.6505 60.6266 16.2546V25.9593H56.4613V1.4541H60.6266Z" fill="black" fill-opacity="0.2"/>
<path d="M60.6266 1.4541V10.5386H60.7015C61.9901 8.88641 63.7707 8.06297 66.0324 8.06297C68.1766 8.06297 69.8395 8.67253 71.0212 9.8863C72.2029 11.1001 72.791 12.8913 72.791 15.2547V25.954H68.6257V15.5969C68.6257 12.6828 67.3692 11.2284 64.8614 11.2284C63.6209 11.2284 62.5997 11.6615 61.8137 12.5384C61.0223 13.41 60.6266 14.6505 60.6266 16.2546V25.9593H56.4613V1.4541H60.6266Z" fill="black" fill-opacity="0.2"/>
<path d="M60.6266 1.4541V10.5386H60.7015C61.9901 8.88641 63.7707 8.06297 66.0324 8.06297C68.1766 8.06297 69.8395 8.67253 71.0212 9.8863C72.2029 11.1001 72.791 12.8913 72.791 15.2547V25.954H68.6257V15.5969C68.6257 12.6828 67.3692 11.2284 64.8614 11.2284C63.6209 11.2284 62.5997 11.6615 61.8137 12.5384C61.0223 13.41 60.6266 14.6505 60.6266 16.2546V25.9593H56.4613V1.4541H60.6266Z" fill="black" fill-opacity="0.2"/>
<path d="M60.6266 1.4541V10.5386H60.7015C61.9901 8.88641 63.7707 8.06297 66.0324 8.06297C68.1766 8.06297 69.8395 8.67253 71.0212 9.8863C72.2029 11.1001 72.791 12.8913 72.791 15.2547V25.954H68.6257V15.5969C68.6257 12.6828 67.3692 11.2284 64.8614 11.2284C63.6209 11.2284 62.5997 11.6615 61.8137 12.5384C61.0223 13.41 60.6266 14.6505 60.6266 16.2546V25.9593H56.4613V1.4541H60.6266Z" fill="black" fill-opacity="0.2"/>
<path d="M78.6726 1.4541V5.20234H74.5073V1.4541H78.6726ZM78.6726 8.47469V25.954H74.5073V8.47469H78.6726Z" fill="#383A4A"/>
<path d="M78.6726 1.4541V5.20234H74.5073V1.4541H78.6726ZM78.6726 8.47469V25.954H74.5073V8.47469H78.6726Z" fill="black" fill-opacity="0.2"/>
<path d="M78.6726 1.4541V5.20234H74.5073V1.4541H78.6726ZM78.6726 8.47469V25.954H74.5073V8.47469H78.6726Z" fill="black" fill-opacity="0.2"/>
<path d="M78.6726 1.4541V5.20234H74.5073V1.4541H78.6726ZM78.6726 8.47469V25.954H74.5073V8.47469H78.6726Z" fill="black" fill-opacity="0.2"/>
<path d="M78.6726 1.4541V5.20234H74.5073V1.4541H78.6726ZM78.6726 8.47469V25.954H74.5073V8.47469H78.6726Z" fill="black" fill-opacity="0.2"/>
<path d="M90.3398 8.06264C92.484 8.06264 94.1469 8.6722 95.3286 9.88596C96.5102 11.0997 97.0984 12.891 97.0984 15.2543V25.9537H92.9331V15.5965C92.9331 12.6824 91.6766 11.2281 89.1688 11.2281C87.9283 11.2281 86.907 11.6612 86.121 12.5381C85.3297 13.4096 84.934 14.6501 84.934 16.2542V25.959H80.7687V8.47436H84.7148V10.7468H84.7896C86.105 8.95559 87.9551 8.06264 90.3398 8.06264Z" fill="#383A4A"/>
<path d="M90.3398 8.06264C92.484 8.06264 94.1469 8.6722 95.3286 9.88596C96.5102 11.0997 97.0984 12.891 97.0984 15.2543V25.9537H92.9331V15.5965C92.9331 12.6824 91.6766 11.2281 89.1688 11.2281C87.9283 11.2281 86.907 11.6612 86.121 12.5381C85.3297 13.4096 84.934 14.6501 84.934 16.2542V25.959H80.7687V8.47436H84.7148V10.7468H84.7896C86.105 8.95559 87.9551 8.06264 90.3398 8.06264Z" fill="black" fill-opacity="0.2"/>
<path d="M90.3398 8.06264C92.484 8.06264 94.1469 8.6722 95.3286 9.88596C96.5102 11.0997 97.0984 12.891 97.0984 15.2543V25.9537H92.9331V15.5965C92.9331 12.6824 91.6766 11.2281 89.1688 11.2281C87.9283 11.2281 86.907 11.6612 86.121 12.5381C85.3297 13.4096 84.934 14.6501 84.934 16.2542V25.959H80.7687V8.47436H84.7148V10.7468H84.7896C86.105 8.95559 87.9551 8.06264 90.3398 8.06264Z" fill="black" fill-opacity="0.2"/>
<path d="M90.3398 8.06264C92.484 8.06264 94.1469 8.6722 95.3286 9.88596C96.5102 11.0997 97.0984 12.891 97.0984 15.2543V25.9537H92.9331V15.5965C92.9331 12.6824 91.6766 11.2281 89.1688 11.2281C87.9283 11.2281 86.907 11.6612 86.121 12.5381C85.3297 13.4096 84.934 14.6501 84.934 16.2542V25.959H80.7687V8.47436H84.7148V10.7468H84.7896C86.105 8.95559 87.9551 8.06264 90.3398 8.06264Z" fill="black" fill-opacity="0.2"/>
<path d="M90.3398 8.06264C92.484 8.06264 94.1469 8.6722 95.3286 9.88596C96.5102 11.0997 97.0984 12.891 97.0984 15.2543V25.9537H92.9331V15.5965C92.9331 12.6824 91.6766 11.2281 89.1688 11.2281C87.9283 11.2281 86.907 11.6612 86.121 12.5381C85.3297 13.4096 84.934 14.6501 84.934 16.2542V25.959H80.7687V8.47436H84.7148V10.7468H84.7896C86.105 8.95559 87.9551 8.06264 90.3398 8.06264Z" fill="black" fill-opacity="0.2"/>
<path d="M106.996 16.4577L115.946 25.954H110.685L102.852 17.4897H102.777V25.954H98.6115V1.4541H102.777V15.629H102.852L109.61 8.46935H114.471L107.001 16.4524L106.996 16.4577Z" fill="#383A4A"/>
<path d="M106.996 16.4577L115.946 25.954H110.685L102.852 17.4897H102.777V25.954H98.6115V1.4541H102.777V15.629H102.852L109.61 8.46935H114.471L107.001 16.4524L106.996 16.4577Z" fill="black" fill-opacity="0.2"/>
<path d="M106.996 16.4577L115.946 25.954H110.685L102.852 17.4897H102.777V25.954H98.6115V1.4541H102.777V15.629H102.852L109.61 8.46935H114.471L107.001 16.4524L106.996 16.4577Z" fill="black" fill-opacity="0.2"/>
<path d="M106.996 16.4577L115.946 25.954H110.685L102.852 17.4897H102.777V25.954H98.6115V1.4541H102.777V15.629H102.852L109.61 8.46935H114.471L107.001 16.4524L106.996 16.4577Z" fill="black" fill-opacity="0.2"/>
<path d="M106.996 16.4577L115.946 25.954H110.685L102.852 17.4897H102.777V25.954H98.6115V1.4541H102.777V15.629H102.852L109.61 8.46935H114.471L107.001 16.4524L106.996 16.4577Z" fill="black" fill-opacity="0.2"/>
<path d="M137.318 1.4541V25.954H132.971V15.0141H120.989V25.954H116.604V1.4541H120.989V11.4316H132.971V1.4541H137.318Z" fill="#383A4A"/>
<path d="M137.318 1.4541V25.954H132.971V15.0141H120.989V25.954H116.604V1.4541H120.989V11.4316H132.971V1.4541H137.318Z" fill="black" fill-opacity="0.2"/>
<path d="M137.318 1.4541V25.954H132.971V15.0141H120.989V25.954H116.604V1.4541H120.989V11.4316H132.971V1.4541H137.318Z" fill="black" fill-opacity="0.2"/>
<path d="M137.318 1.4541V25.954H132.971V15.0141H120.989V25.954H116.604V1.4541H120.989V11.4316H132.971V1.4541H137.318Z" fill="black" fill-opacity="0.2"/>
<path d="M137.318 1.4541V25.954H132.971V15.0141H120.989V25.954H116.604V1.4541H120.989V11.4316H132.971V1.4541H137.318Z" fill="black" fill-opacity="0.2"/>
<path d="M145.975 26.3662C143.831 26.3662 142.168 25.7566 140.986 24.5429C139.805 23.3291 139.217 21.5378 139.217 19.1745V8.47515H143.382V18.8323C143.382 21.7464 144.638 23.2008 147.146 23.2008C148.387 23.2008 149.403 22.7677 150.194 21.8907C150.985 21.0192 151.381 19.7787 151.381 18.1746V8.47515H155.546V25.9545H151.6V23.682H151.525C150.21 25.4732 148.36 26.3662 145.975 26.3662Z" fill="#383A4A"/>
<path d="M145.975 26.3662C143.831 26.3662 142.168 25.7566 140.986 24.5429C139.805 23.3291 139.217 21.5378 139.217 19.1745V8.47515H143.382V18.8323C143.382 21.7464 144.638 23.2008 147.146 23.2008C148.387 23.2008 149.403 22.7677 150.194 21.8907C150.985 21.0192 151.381 19.7787 151.381 18.1746V8.47515H155.546V25.9545H151.6V23.682H151.525C150.21 25.4732 148.36 26.3662 145.975 26.3662Z" fill="black" fill-opacity="0.2"/>
<path d="M145.975 26.3662C143.831 26.3662 142.168 25.7566 140.986 24.5429C139.805 23.3291 139.217 21.5378 139.217 19.1745V8.47515H143.382V18.8323C143.382 21.7464 144.638 23.2008 147.146 23.2008C148.387 23.2008 149.403 22.7677 150.194 21.8907C150.985 21.0192 151.381 19.7787 151.381 18.1746V8.47515H155.546V25.9545H151.6V23.682H151.525C150.21 25.4732 148.36 26.3662 145.975 26.3662Z" fill="black" fill-opacity="0.2"/>
<path d="M145.975 26.3662C143.831 26.3662 142.168 25.7566 140.986 24.5429C139.805 23.3291 139.217 21.5378 139.217 19.1745V8.47515H143.382V18.8323C143.382 21.7464 144.638 23.2008 147.146 23.2008C148.387 23.2008 149.403 22.7677 150.194 21.8907C150.985 21.0192 151.381 19.7787 151.381 18.1746V8.47515H155.546V25.9545H151.6V23.682H151.525C150.21 25.4732 148.36 26.3662 145.975 26.3662Z" fill="black" fill-opacity="0.2"/>
<path d="M145.975 26.3662C143.831 26.3662 142.168 25.7566 140.986 24.5429C139.805 23.3291 139.217 21.5378 139.217 19.1745V8.47515H143.382V18.8323C143.382 21.7464 144.638 23.2008 147.146 23.2008C148.387 23.2008 149.403 22.7677 150.194 21.8907C150.985 21.0192 151.381 19.7787 151.381 18.1746V8.47515H155.546V25.9545H151.6V23.682H151.525C150.21 25.4732 148.36 26.3662 145.975 26.3662Z" fill="black" fill-opacity="0.2"/>
<path d="M164.952 7.99384C167.192 7.99384 168.994 8.96699 170.357 10.9186H170.432V8.47507H174.378V24.8529C174.378 27.4194 173.641 29.3551 172.17 30.649C170.694 31.943 168.62 32.5953 165.941 32.5953C163.481 32.5953 161.562 32.1088 160.187 31.1303C158.813 30.1571 158.075 28.7936 157.979 27.0505H162.144C162.193 27.9007 162.556 28.553 163.241 29.0129C163.92 29.4727 164.85 29.7026 166.016 29.7026C167.454 29.7026 168.529 29.3123 169.251 28.5316C169.967 27.751 170.331 26.4784 170.331 24.7139V22.9921H170.256C168.914 24.8262 167.128 25.7458 164.887 25.7458C162.524 25.7458 160.653 24.9438 159.262 23.3397C157.872 21.7356 157.182 19.5754 157.182 16.8698C157.182 14.1643 157.888 12.0041 159.3 10.4C160.711 8.79589 162.599 7.98849 164.962 7.98849L164.952 7.99384ZM165.903 11.2608C164.561 11.2608 163.497 11.7635 162.706 12.774C161.915 13.7846 161.519 15.1481 161.519 16.8698C161.519 18.5916 161.915 19.9604 162.706 20.9817C163.497 22.0029 164.561 22.5109 165.903 22.5109C167.315 22.5109 168.427 22.0029 169.245 20.9817C170.063 19.9604 170.47 18.5916 170.47 16.8698C170.47 15.1481 170.063 13.7846 169.245 12.774C168.427 11.7635 167.315 11.2608 165.903 11.2608Z" fill="#383A4A"/>
<path d="M164.952 7.99384C167.192 7.99384 168.994 8.96699 170.357 10.9186H170.432V8.47507H174.378V24.8529C174.378 27.4194 173.641 29.3551 172.17 30.649C170.694 31.943 168.62 32.5953 165.941 32.5953C163.481 32.5953 161.562 32.1088 160.187 31.1303C158.813 30.1571 158.075 28.7936 157.979 27.0505H162.144C162.193 27.9007 162.556 28.553 163.241 29.0129C163.92 29.4727 164.85 29.7026 166.016 29.7026C167.454 29.7026 168.529 29.3123 169.251 28.5316C169.967 27.751 170.331 26.4784 170.331 24.7139V22.9921H170.256C168.914 24.8262 167.128 25.7458 164.887 25.7458C162.524 25.7458 160.653 24.9438 159.262 23.3397C157.872 21.7356 157.182 19.5754 157.182 16.8698C157.182 14.1643 157.888 12.0041 159.3 10.4C160.711 8.79589 162.599 7.98849 164.962 7.98849L164.952 7.99384ZM165.903 11.2608C164.561 11.2608 163.497 11.7635 162.706 12.774C161.915 13.7846 161.519 15.1481 161.519 16.8698C161.519 18.5916 161.915 19.9604 162.706 20.9817C163.497 22.0029 164.561 22.5109 165.903 22.5109C167.315 22.5109 168.427 22.0029 169.245 20.9817C170.063 19.9604 170.47 18.5916 170.47 16.8698C170.47 15.1481 170.063 13.7846 169.245 12.774C168.427 11.7635 167.315 11.2608 165.903 11.2608Z" fill="black" fill-opacity="0.2"/>
<path d="M164.952 7.99384C167.192 7.99384 168.994 8.96699 170.357 10.9186H170.432V8.47507H174.378V24.8529C174.378 27.4194 173.641 29.3551 172.17 30.649C170.694 31.943 168.62 32.5953 165.941 32.5953C163.481 32.5953 161.562 32.1088 160.187 31.1303C158.813 30.1571 158.075 28.7936 157.979 27.0505H162.144C162.193 27.9007 162.556 28.553 163.241 29.0129C163.92 29.4727 164.85 29.7026 166.016 29.7026C167.454 29.7026 168.529 29.3123 169.251 28.5316C169.967 27.751 170.331 26.4784 170.331 24.7139V22.9921H170.256C168.914 24.8262 167.128 25.7458 164.887 25.7458C162.524 25.7458 160.653 24.9438 159.262 23.3397C157.872 21.7356 157.182 19.5754 157.182 16.8698C157.182 14.1643 157.888 12.0041 159.3 10.4C160.711 8.79589 162.599 7.98849 164.962 7.98849L164.952 7.99384ZM165.903 11.2608C164.561 11.2608 163.497 11.7635 162.706 12.774C161.915 13.7846 161.519 15.1481 161.519 16.8698C161.519 18.5916 161.915 19.9604 162.706 20.9817C163.497 22.0029 164.561 22.5109 165.903 22.5109C167.315 22.5109 168.427 22.0029 169.245 20.9817C170.063 19.9604 170.47 18.5916 170.47 16.8698C170.47 15.1481 170.063 13.7846 169.245 12.774C168.427 11.7635 167.315 11.2608 165.903 11.2608Z" fill="black" fill-opacity="0.2"/>
<path d="M164.952 7.99384C167.192 7.99384 168.994 8.96699 170.357 10.9186H170.432V8.47507H174.378V24.8529C174.378 27.4194 173.641 29.3551 172.17 30.649C170.694 31.943 168.62 32.5953 165.941 32.5953C163.481 32.5953 161.562 32.1088 160.187 31.1303C158.813 30.1571 158.075 28.7936 157.979 27.0505H162.144C162.193 27.9007 162.556 28.553 163.241 29.0129C163.92 29.4727 164.85 29.7026 166.016 29.7026C167.454 29.7026 168.529 29.3123 169.251 28.5316C169.967 27.751 170.331 26.4784 170.331 24.7139V22.9921H170.256C168.914 24.8262 167.128 25.7458 164.887 25.7458C162.524 25.7458 160.653 24.9438 159.262 23.3397C157.872 21.7356 157.182 19.5754 157.182 16.8698C157.182 14.1643 157.888 12.0041 159.3 10.4C160.711 8.79589 162.599 7.98849 164.962 7.98849L164.952 7.99384ZM165.903 11.2608C164.561 11.2608 163.497 11.7635 162.706 12.774C161.915 13.7846 161.519 15.1481 161.519 16.8698C161.519 18.5916 161.915 19.9604 162.706 20.9817C163.497 22.0029 164.561 22.5109 165.903 22.5109C167.315 22.5109 168.427 22.0029 169.245 20.9817C170.063 19.9604 170.47 18.5916 170.47 16.8698C170.47 15.1481 170.063 13.7846 169.245 12.774C168.427 11.7635 167.315 11.2608 165.903 11.2608Z" fill="black" fill-opacity="0.2"/>
<path d="M164.952 7.99384C167.192 7.99384 168.994 8.96699 170.357 10.9186H170.432V8.47507H174.378V24.8529C174.378 27.4194 173.641 29.3551 172.17 30.649C170.694 31.943 168.62 32.5953 165.941 32.5953C163.481 32.5953 161.562 32.1088 160.187 31.1303C158.813 30.1571 158.075 28.7936 157.979 27.0505H162.144C162.193 27.9007 162.556 28.553 163.241 29.0129C163.92 29.4727 164.85 29.7026 166.016 29.7026C167.454 29.7026 168.529 29.3123 169.251 28.5316C169.967 27.751 170.331 26.4784 170.331 24.7139V22.9921H170.256C168.914 24.8262 167.128 25.7458 164.887 25.7458C162.524 25.7458 160.653 24.9438 159.262 23.3397C157.872 21.7356 157.182 19.5754 157.182 16.8698C157.182 14.1643 157.888 12.0041 159.3 10.4C160.711 8.79589 162.599 7.98849 164.962 7.98849L164.952 7.99384ZM165.903 11.2608C164.561 11.2608 163.497 11.7635 162.706 12.774C161.915 13.7846 161.519 15.1481 161.519 16.8698C161.519 18.5916 161.915 19.9604 162.706 20.9817C163.497 22.0029 164.561 22.5109 165.903 22.5109C167.315 22.5109 168.427 22.0029 169.245 20.9817C170.063 19.9604 170.47 18.5916 170.47 16.8698C170.47 15.1481 170.063 13.7846 169.245 12.774C168.427 11.7635 167.315 11.2608 165.903 11.2608Z" fill="black" fill-opacity="0.2"/>
<path d="M184.987 23.58C186.158 23.58 187.11 23.318 187.853 22.7887C188.596 22.2593 189.067 21.5642 189.259 20.6873H193.531C193.168 22.3395 192.227 23.7137 190.719 24.8152C189.211 25.9167 187.297 26.4674 184.981 26.4674C182.18 26.4674 179.982 25.6065 178.389 23.8848C176.795 22.1631 175.998 19.8692 175.998 17.0032C175.998 14.3672 176.795 12.1963 178.389 10.5013C179.982 8.80629 182.158 7.95612 184.907 7.95612C187.003 7.95612 188.783 8.49082 190.259 9.55487C191.735 10.6189 192.724 12.0733 193.237 13.9073C193.579 14.9393 193.75 16.3028 193.75 18.0031H180.126C180.201 19.8852 180.682 21.2862 181.57 22.2005C182.458 23.1202 183.597 23.5747 184.987 23.5747V23.58ZM188.109 12.0198C187.27 11.2392 186.206 10.8488 184.912 10.8488C183.618 10.8488 182.554 11.2392 181.714 12.0198C180.875 12.8005 180.367 13.9341 180.196 15.4259H189.585C189.441 13.9341 188.944 12.8005 188.104 12.0198H188.109Z" fill="#383A4A"/>
<path d="M184.987 23.58C186.158 23.58 187.11 23.318 187.853 22.7887C188.596 22.2593 189.067 21.5642 189.259 20.6873H193.531C193.168 22.3395 192.227 23.7137 190.719 24.8152C189.211 25.9167 187.297 26.4674 184.981 26.4674C182.18 26.4674 179.982 25.6065 178.389 23.8848C176.795 22.1631 175.998 19.8692 175.998 17.0032C175.998 14.3672 176.795 12.1963 178.389 10.5013C179.982 8.80629 182.158 7.95612 184.907 7.95612C187.003 7.95612 188.783 8.49082 190.259 9.55487C191.735 10.6189 192.724 12.0733 193.237 13.9073C193.579 14.9393 193.75 16.3028 193.75 18.0031H180.126C180.201 19.8852 180.682 21.2862 181.57 22.2005C182.458 23.1202 183.597 23.5747 184.987 23.5747V23.58ZM188.109 12.0198C187.27 11.2392 186.206 10.8488 184.912 10.8488C183.618 10.8488 182.554 11.2392 181.714 12.0198C180.875 12.8005 180.367 13.9341 180.196 15.4259H189.585C189.441 13.9341 188.944 12.8005 188.104 12.0198H188.109Z" fill="black" fill-opacity="0.2"/>
<path d="M184.987 23.58C186.158 23.58 187.11 23.318 187.853 22.7887C188.596 22.2593 189.067 21.5642 189.259 20.6873H193.531C193.168 22.3395 192.227 23.7137 190.719 24.8152C189.211 25.9167 187.297 26.4674 184.981 26.4674C182.18 26.4674 179.982 25.6065 178.389 23.8848C176.795 22.1631 175.998 19.8692 175.998 17.0032C175.998 14.3672 176.795 12.1963 178.389 10.5013C179.982 8.80629 182.158 7.95612 184.907 7.95612C187.003 7.95612 188.783 8.49082 190.259 9.55487C191.735 10.6189 192.724 12.0733 193.237 13.9073C193.579 14.9393 193.75 16.3028 193.75 18.0031H180.126C180.201 19.8852 180.682 21.2862 181.57 22.2005C182.458 23.1202 183.597 23.5747 184.987 23.5747V23.58ZM188.109 12.0198C187.27 11.2392 186.206 10.8488 184.912 10.8488C183.618 10.8488 182.554 11.2392 181.714 12.0198C180.875 12.8005 180.367 13.9341 180.196 15.4259H189.585C189.441 13.9341 188.944 12.8005 188.104 12.0198H188.109Z" fill="black" fill-opacity="0.2"/>
<path d="M184.987 23.58C186.158 23.58 187.11 23.318 187.853 22.7887C188.596 22.2593 189.067 21.5642 189.259 20.6873H193.531C193.168 22.3395 192.227 23.7137 190.719 24.8152C189.211 25.9167 187.297 26.4674 184.981 26.4674C182.18 26.4674 179.982 25.6065 178.389 23.8848C176.795 22.1631 175.998 19.8692 175.998 17.0032C175.998 14.3672 176.795 12.1963 178.389 10.5013C179.982 8.80629 182.158 7.95612 184.907 7.95612C187.003 7.95612 188.783 8.49082 190.259 9.55487C191.735 10.6189 192.724 12.0733 193.237 13.9073C193.579 14.9393 193.75 16.3028 193.75 18.0031H180.126C180.201 19.8852 180.682 21.2862 181.57 22.2005C182.458 23.1202 183.597 23.5747 184.987 23.5747V23.58ZM188.109 12.0198C187.27 11.2392 186.206 10.8488 184.912 10.8488C183.618 10.8488 182.554 11.2392 181.714 12.0198C180.875 12.8005 180.367 13.9341 180.196 15.4259H189.585C189.441 13.9341 188.944 12.8005 188.104 12.0198H188.109Z" fill="black" fill-opacity="0.2"/>
<path d="M184.987 23.58C186.158 23.58 187.11 23.318 187.853 22.7887C188.596 22.2593 189.067 21.5642 189.259 20.6873H193.531C193.168 22.3395 192.227 23.7137 190.719 24.8152C189.211 25.9167 187.297 26.4674 184.981 26.4674C182.18 26.4674 179.982 25.6065 178.389 23.8848C176.795 22.1631 175.998 19.8692 175.998 17.0032C175.998 14.3672 176.795 12.1963 178.389 10.5013C179.982 8.80629 182.158 7.95612 184.907 7.95612C187.003 7.95612 188.783 8.49082 190.259 9.55487C191.735 10.6189 192.724 12.0733 193.237 13.9073C193.579 14.9393 193.75 16.3028 193.75 18.0031H180.126C180.201 19.8852 180.682 21.2862 181.57 22.2005C182.458 23.1202 183.597 23.5747 184.987 23.5747V23.58ZM188.109 12.0198C187.27 11.2392 186.206 10.8488 184.912 10.8488C183.618 10.8488 182.554 11.2392 181.714 12.0198C180.875 12.8005 180.367 13.9341 180.196 15.4259H189.585C189.441 13.9341 188.944 12.8005 188.104 12.0198H188.109Z" fill="black" fill-opacity="0.2"/>
<path d="M195.991 3.68306V4.85405H195.344V1.80092H196.231C196.649 1.80092 196.953 1.87578 197.151 2.02549C197.349 2.17521 197.451 2.40513 197.451 2.71525C197.451 2.89705 197.402 3.05746 197.301 3.19648C197.199 3.33551 197.06 3.44779 196.878 3.528C197.338 4.21241 197.638 4.65621 197.777 4.8594H197.06L196.333 3.68841H195.991V3.68306ZM196.199 3.15905C196.403 3.15905 196.558 3.12697 196.654 3.05746C196.75 2.98795 196.798 2.88101 196.798 2.73664C196.798 2.59227 196.75 2.49068 196.649 2.42652C196.547 2.3677 196.397 2.33562 196.183 2.33562H195.986V3.15905H196.199Z" fill="#383A4A"/>
<path d="M195.991 3.68306V4.85405H195.344V1.80092H196.231C196.649 1.80092 196.953 1.87578 197.151 2.02549C197.349 2.17521 197.451 2.40513 197.451 2.71525C197.451 2.89705 197.402 3.05746 197.301 3.19648C197.199 3.33551 197.06 3.44779 196.878 3.528C197.338 4.21241 197.638 4.65621 197.777 4.8594H197.06L196.333 3.68841H195.991V3.68306ZM196.199 3.15905C196.403 3.15905 196.558 3.12697 196.654 3.05746C196.75 2.98795 196.798 2.88101 196.798 2.73664C196.798 2.59227 196.75 2.49068 196.649 2.42652C196.547 2.3677 196.397 2.33562 196.183 2.33562H195.986V3.15905H196.199Z" fill="black" fill-opacity="0.2"/>
<path d="M195.991 3.68306V4.85405H195.344V1.80092H196.231C196.649 1.80092 196.953 1.87578 197.151 2.02549C197.349 2.17521 197.451 2.40513 197.451 2.71525C197.451 2.89705 197.402 3.05746 197.301 3.19648C197.199 3.33551 197.06 3.44779 196.878 3.528C197.338 4.21241 197.638 4.65621 197.777 4.8594H197.06L196.333 3.68841H195.991V3.68306ZM196.199 3.15905C196.403 3.15905 196.558 3.12697 196.654 3.05746C196.75 2.98795 196.798 2.88101 196.798 2.73664C196.798 2.59227 196.75 2.49068 196.649 2.42652C196.547 2.3677 196.397 2.33562 196.183 2.33562H195.986V3.15905H196.199Z" fill="black" fill-opacity="0.2"/>
<path d="M195.991 3.68306V4.85405H195.344V1.80092H196.231C196.649 1.80092 196.953 1.87578 197.151 2.02549C197.349 2.17521 197.451 2.40513 197.451 2.71525C197.451 2.89705 197.402 3.05746 197.301 3.19648C197.199 3.33551 197.06 3.44779 196.878 3.528C197.338 4.21241 197.638 4.65621 197.777 4.8594H197.06L196.333 3.68841H195.991V3.68306ZM196.199 3.15905C196.403 3.15905 196.558 3.12697 196.654 3.05746C196.75 2.98795 196.798 2.88101 196.798 2.73664C196.798 2.59227 196.75 2.49068 196.649 2.42652C196.547 2.3677 196.397 2.33562 196.183 2.33562H195.986V3.15905H196.199Z" fill="black" fill-opacity="0.2"/>
<path d="M195.991 3.68306V4.85405H195.344V1.80092H196.231C196.649 1.80092 196.953 1.87578 197.151 2.02549C197.349 2.17521 197.451 2.40513 197.451 2.71525C197.451 2.89705 197.402 3.05746 197.301 3.19648C197.199 3.33551 197.06 3.44779 196.878 3.528C197.338 4.21241 197.638 4.65621 197.777 4.8594H197.06L196.333 3.68841H195.991V3.68306ZM196.199 3.15905C196.403 3.15905 196.558 3.12697 196.654 3.05746C196.75 2.98795 196.798 2.88101 196.798 2.73664C196.798 2.59227 196.75 2.49068 196.649 2.42652C196.547 2.3677 196.397 2.33562 196.183 2.33562H195.986V3.15905H196.199Z" fill="black" fill-opacity="0.2"/>
<path d="M196.461 6.03615C195.74 6.03615 195.061 5.75276 194.547 5.2448C194.034 4.73149 193.756 4.05242 193.756 3.33058C193.756 2.60873 194.039 1.92967 194.547 1.41635C195.061 0.903043 195.74 0.625 196.461 0.625C197.183 0.625 197.862 0.90839 198.376 1.41635C198.889 1.92967 199.167 2.60873 199.167 3.33058C199.167 4.05242 198.884 4.73149 198.376 5.2448C197.862 5.75811 197.183 6.03615 196.461 6.03615ZM196.461 1.03137C195.194 1.03137 194.162 2.06334 194.162 3.33058C194.162 4.59781 195.194 5.62978 196.461 5.62978C197.729 5.62978 198.761 4.59781 198.761 3.33058C198.761 2.06334 197.729 1.03137 196.461 1.03137Z" fill="#383A4A"/>
<path d="M196.461 6.03615C195.74 6.03615 195.061 5.75276 194.547 5.2448C194.034 4.73149 193.756 4.05242 193.756 3.33058C193.756 2.60873 194.039 1.92967 194.547 1.41635C195.061 0.903043 195.74 0.625 196.461 0.625C197.183 0.625 197.862 0.90839 198.376 1.41635C198.889 1.92967 199.167 2.60873 199.167 3.33058C199.167 4.05242 198.884 4.73149 198.376 5.2448C197.862 5.75811 197.183 6.03615 196.461 6.03615ZM196.461 1.03137C195.194 1.03137 194.162 2.06334 194.162 3.33058C194.162 4.59781 195.194 5.62978 196.461 5.62978C197.729 5.62978 198.761 4.59781 198.761 3.33058C198.761 2.06334 197.729 1.03137 196.461 1.03137Z" fill="black" fill-opacity="0.2"/>
<path d="M196.461 6.03615C195.74 6.03615 195.061 5.75276 194.547 5.2448C194.034 4.73149 193.756 4.05242 193.756 3.33058C193.756 2.60873 194.039 1.92967 194.547 1.41635C195.061 0.903043 195.74 0.625 196.461 0.625C197.183 0.625 197.862 0.90839 198.376 1.41635C198.889 1.92967 199.167 2.60873 199.167 3.33058C199.167 4.05242 198.884 4.73149 198.376 5.2448C197.862 5.75811 197.183 6.03615 196.461 6.03615ZM196.461 1.03137C195.194 1.03137 194.162 2.06334 194.162 3.33058C194.162 4.59781 195.194 5.62978 196.461 5.62978C197.729 5.62978 198.761 4.59781 198.761 3.33058C198.761 2.06334 197.729 1.03137 196.461 1.03137Z" fill="black" fill-opacity="0.2"/>
<path d="M196.461 6.03615C195.74 6.03615 195.061 5.75276 194.547 5.2448C194.034 4.73149 193.756 4.05242 193.756 3.33058C193.756 2.60873 194.039 1.92967 194.547 1.41635C195.061 0.903043 195.74 0.625 196.461 0.625C197.183 0.625 197.862 0.90839 198.376 1.41635C198.889 1.92967 199.167 2.60873 199.167 3.33058C199.167 4.05242 198.884 4.73149 198.376 5.2448C197.862 5.75811 197.183 6.03615 196.461 6.03615ZM196.461 1.03137C195.194 1.03137 194.162 2.06334 194.162 3.33058C194.162 4.59781 195.194 5.62978 196.461 5.62978C197.729 5.62978 198.761 4.59781 198.761 3.33058C198.761 2.06334 197.729 1.03137 196.461 1.03137Z" fill="black" fill-opacity="0.2"/>
<path d="M196.461 6.03615C195.74 6.03615 195.061 5.75276 194.547 5.2448C194.034 4.73149 193.756 4.05242 193.756 3.33058C193.756 2.60873 194.039 1.92967 194.547 1.41635C195.061 0.903043 195.74 0.625 196.461 0.625C197.183 0.625 197.862 0.90839 198.376 1.41635C198.889 1.92967 199.167 2.60873 199.167 3.33058C199.167 4.05242 198.884 4.73149 198.376 5.2448C197.862 5.75811 197.183 6.03615 196.461 6.03615ZM196.461 1.03137C195.194 1.03137 194.162 2.06334 194.162 3.33058C194.162 4.59781 195.194 5.62978 196.461 5.62978C197.729 5.62978 198.761 4.59781 198.761 3.33058C198.761 2.06334 197.729 1.03137 196.461 1.03137Z" fill="black" fill-opacity="0.2"/>
<path d="M2.71875 1.79106V7.38401C2.71875 7.57116 2.86847 7.72087 3.05561 7.72087H11.7926C12.1188 7.72087 12.2524 8.13794 11.9851 8.32508C6.47768 12.1321 2.83638 18.4469 2.71875 25.6012C2.71875 25.7883 2.86847 25.9434 3.05561 25.9434H8.75015C8.93195 25.9434 9.07632 25.799 9.08167 25.6172C9.23138 18.6662 14.1185 12.8593 20.6365 11.3034C20.845 11.2552 21.0482 11.4156 21.0482 11.6349V25.6814C21.0482 25.8685 21.1979 26.0183 21.3851 26.0183H26.9834C27.1705 26.0183 27.3202 25.8685 27.3202 25.6814V1.79106C27.3202 1.60392 27.1705 1.4542 26.9834 1.4542H3.05561C2.86847 1.4542 2.71875 1.60392 2.71875 1.79106Z" fill="#383A4A"/>
<path d="M2.71875 1.79106V7.38401C2.71875 7.57116 2.86847 7.72087 3.05561 7.72087H11.7926C12.1188 7.72087 12.2524 8.13794 11.9851 8.32508C6.47768 12.1321 2.83638 18.4469 2.71875 25.6012C2.71875 25.7883 2.86847 25.9434 3.05561 25.9434H8.75015C8.93195 25.9434 9.07632 25.799 9.08167 25.6172C9.23138 18.6662 14.1185 12.8593 20.6365 11.3034C20.845 11.2552 21.0482 11.4156 21.0482 11.6349V25.6814C21.0482 25.8685 21.1979 26.0183 21.3851 26.0183H26.9834C27.1705 26.0183 27.3202 25.8685 27.3202 25.6814V1.79106C27.3202 1.60392 27.1705 1.4542 26.9834 1.4542H3.05561C2.86847 1.4542 2.71875 1.60392 2.71875 1.79106Z" fill="black" fill-opacity="0.2"/>
<path d="M2.71875 1.79106V7.38401C2.71875 7.57116 2.86847 7.72087 3.05561 7.72087H11.7926C12.1188 7.72087 12.2524 8.13794 11.9851 8.32508C6.47768 12.1321 2.83638 18.4469 2.71875 25.6012C2.71875 25.7883 2.86847 25.9434 3.05561 25.9434H8.75015C8.93195 25.9434 9.07632 25.799 9.08167 25.6172C9.23138 18.6662 14.1185 12.8593 20.6365 11.3034C20.845 11.2552 21.0482 11.4156 21.0482 11.6349V25.6814C21.0482 25.8685 21.1979 26.0183 21.3851 26.0183H26.9834C27.1705 26.0183 27.3202 25.8685 27.3202 25.6814V1.79106C27.3202 1.60392 27.1705 1.4542 26.9834 1.4542H3.05561C2.86847 1.4542 2.71875 1.60392 2.71875 1.79106Z" fill="black" fill-opacity="0.2"/>
<path d="M2.71875 1.79106V7.38401C2.71875 7.57116 2.86847 7.72087 3.05561 7.72087H11.7926C12.1188 7.72087 12.2524 8.13794 11.9851 8.32508C6.47768 12.1321 2.83638 18.4469 2.71875 25.6012C2.71875 25.7883 2.86847 25.9434 3.05561 25.9434H8.75015C8.93195 25.9434 9.07632 25.799 9.08167 25.6172C9.23138 18.6662 14.1185 12.8593 20.6365 11.3034C20.845 11.2552 21.0482 11.4156 21.0482 11.6349V25.6814C21.0482 25.8685 21.1979 26.0183 21.3851 26.0183H26.9834C27.1705 26.0183 27.3202 25.8685 27.3202 25.6814V1.79106C27.3202 1.60392 27.1705 1.4542 26.9834 1.4542H3.05561C2.86847 1.4542 2.71875 1.60392 2.71875 1.79106Z" fill="black" fill-opacity="0.2"/>
<path d="M2.71875 1.79106V7.38401C2.71875 7.57116 2.86847 7.72087 3.05561 7.72087H11.7926C12.1188 7.72087 12.2524 8.13794 11.9851 8.32508C6.47768 12.1321 2.83638 18.4469 2.71875 25.6012C2.71875 25.7883 2.86847 25.9434 3.05561 25.9434H8.75015C8.93195 25.9434 9.07632 25.799 9.08167 25.6172C9.23138 18.6662 14.1185 12.8593 20.6365 11.3034C20.845 11.2552 21.0482 11.4156 21.0482 11.6349V25.6814C21.0482 25.8685 21.1979 26.0183 21.3851 26.0183H26.9834C27.1705 26.0183 27.3202 25.8685 27.3202 25.6814V1.79106C27.3202 1.60392 27.1705 1.4542 26.9834 1.4542H3.05561C2.86847 1.4542 2.71875 1.60392 2.71875 1.79106Z" fill="black" fill-opacity="0.2"/>
</svg>
